<mxfile host="app.diagrams.net" modified="2024-02-11T04:55:01.920Z" agent="Mozilla/5.0 (X11; Linux x86_64) AppleWebKit/537.36 (KHTML, like Gecko) Chrome/120.0.0.0 Safari/537.36" etag="KLl95XTykkrYBBF-7iyU" version="23.1.2" type="github">
  <diagram id="C5RBs43oDa-KdzZeNtuy" name="Page-1">
    <mxGraphModel dx="633" dy="326" grid="1" gridSize="9" guides="1" tooltips="1" connect="1" arrows="1" fold="1" page="1" pageScale="1" pageWidth="827" pageHeight="1169" math="0" shadow="0">
      <root>
        <mxCell id="WIyWlLk6GJQsqaUBKTNV-0" />
        <mxCell id="WIyWlLk6GJQsqaUBKTNV-1" parent="WIyWlLk6GJQsqaUBKTNV-0" />
        <mxCell id="WIyWlLk6GJQsqaUBKTNV-2" value="" style="rounded=0;html=1;jettySize=auto;orthogonalLoop=1;fontSize=11;endArrow=block;endFill=0;endSize=8;strokeWidth=1;shadow=0;labelBackgroundColor=none;edgeStyle=orthogonalEdgeStyle;" parent="WIyWlLk6GJQsqaUBKTNV-1" source="WIyWlLk6GJQsqaUBKTNV-3" edge="1">
          <mxGeometry relative="1" as="geometry">
            <mxPoint x="220" y="170" as="targetPoint" />
          </mxGeometry>
        </mxCell>
        <mxCell id="WIyWlLk6GJQsqaUBKTNV-3" value="&lt;span style=&quot;font-size: 10px;&quot;&gt;global_cpu_に2を&lt;br&gt;書き込む&lt;/span&gt;" style="rounded=1;whiteSpace=wrap;html=1;fontSize=12;glass=0;strokeWidth=1;shadow=0;" parent="WIyWlLk6GJQsqaUBKTNV-1" vertex="1">
          <mxGeometry x="160" y="100" width="120" height="40" as="geometry" />
        </mxCell>
        <mxCell id="GQPtleFYwMAm_lNfd_lW-1" value="" style="edgeStyle=orthogonalEdgeStyle;rounded=0;orthogonalLoop=1;jettySize=auto;html=1;endArrow=block;endFill=1;" edge="1" parent="WIyWlLk6GJQsqaUBKTNV-1" source="GQPtleFYwMAm_lNfd_lW-6">
          <mxGeometry relative="1" as="geometry">
            <mxPoint x="420" y="190" as="targetPoint" />
          </mxGeometry>
        </mxCell>
        <mxCell id="WIyWlLk6GJQsqaUBKTNV-11" value="&lt;font style=&quot;font-size: 10px;&quot;&gt;Agent2にPingを送る&lt;/font&gt;" style="rounded=1;whiteSpace=wrap;html=1;fontSize=12;glass=0;strokeWidth=1;shadow=0;" parent="WIyWlLk6GJQsqaUBKTNV-1" vertex="1">
          <mxGeometry x="160" y="170" width="120" height="40" as="geometry" />
        </mxCell>
        <mxCell id="GQPtleFYwMAm_lNfd_lW-3" value="Agent1" style="rounded=0;whiteSpace=wrap;html=1;" vertex="1" parent="WIyWlLk6GJQsqaUBKTNV-1">
          <mxGeometry x="180" y="60" width="80" height="30" as="geometry" />
        </mxCell>
        <mxCell id="GQPtleFYwMAm_lNfd_lW-4" value="Agent2" style="rounded=0;whiteSpace=wrap;html=1;" vertex="1" parent="WIyWlLk6GJQsqaUBKTNV-1">
          <mxGeometry x="440" y="60" width="80" height="30" as="geometry" />
        </mxCell>
        <mxCell id="GQPtleFYwMAm_lNfd_lW-7" value="" style="edgeStyle=orthogonalEdgeStyle;rounded=0;orthogonalLoop=1;jettySize=auto;html=1;endArrow=none;endFill=0;" edge="1" parent="WIyWlLk6GJQsqaUBKTNV-1" source="WIyWlLk6GJQsqaUBKTNV-11" target="GQPtleFYwMAm_lNfd_lW-6">
          <mxGeometry relative="1" as="geometry">
            <mxPoint x="280" y="190" as="sourcePoint" />
            <mxPoint x="420" y="190" as="targetPoint" />
          </mxGeometry>
        </mxCell>
        <mxCell id="GQPtleFYwMAm_lNfd_lW-6" value="Agent2のバリア値が&lt;br&gt;インクリメントされる" style="shape=step;perimeter=stepPerimeter;whiteSpace=wrap;html=1;fixedSize=1;fontSize=6;size=10;" vertex="1" parent="WIyWlLk6GJQsqaUBKTNV-1">
          <mxGeometry x="306" y="176.5" width="81" height="27" as="geometry" />
        </mxCell>
        <mxCell id="GQPtleFYwMAm_lNfd_lW-8" value="&lt;font style=&quot;font-size: 10px;&quot;&gt;Agent2のバリア値を&lt;br&gt;読み出す&lt;/font&gt;" style="rounded=1;whiteSpace=wrap;html=1;fontSize=12;glass=0;strokeWidth=1;shadow=0;" vertex="1" parent="WIyWlLk6GJQsqaUBKTNV-1">
          <mxGeometry x="420" y="170" width="120" height="40" as="geometry" />
        </mxCell>
        <mxCell id="GQPtleFYwMAm_lNfd_lW-10" value="" style="rounded=0;html=1;jettySize=auto;orthogonalLoop=1;fontSize=11;endArrow=block;endFill=0;endSize=8;strokeWidth=1;shadow=0;labelBackgroundColor=none;edgeStyle=orthogonalEdgeStyle;entryX=0.5;entryY=0;entryDx=0;entryDy=0;exitX=0.5;exitY=1;exitDx=0;exitDy=0;" edge="1" parent="WIyWlLk6GJQsqaUBKTNV-1" source="GQPtleFYwMAm_lNfd_lW-8">
          <mxGeometry relative="1" as="geometry">
            <mxPoint x="230" y="150" as="sourcePoint" />
            <mxPoint x="480" y="240" as="targetPoint" />
            <Array as="points">
              <mxPoint x="480" y="230" />
              <mxPoint x="480" y="230" />
            </Array>
          </mxGeometry>
        </mxCell>
        <mxCell id="GQPtleFYwMAm_lNfd_lW-11" value="&lt;font style=&quot;font-size: 8px;&quot;&gt;global_cpu_の値を読み出す。global_cpu_が2となっている。&lt;/font&gt;" style="rounded=1;whiteSpace=wrap;html=1;fontSize=12;glass=0;strokeWidth=1;shadow=0;" vertex="1" parent="WIyWlLk6GJQsqaUBKTNV-1">
          <mxGeometry x="420" y="240" width="120" height="40" as="geometry" />
        </mxCell>
        <mxCell id="GQPtleFYwMAm_lNfd_lW-12" value="" style="rounded=0;html=1;jettySize=auto;orthogonalLoop=1;fontSize=11;endArrow=block;endFill=0;endSize=8;strokeWidth=1;shadow=0;labelBackgroundColor=none;edgeStyle=orthogonalEdgeStyle;" edge="1" parent="WIyWlLk6GJQsqaUBKTNV-1" source="GQPtleFYwMAm_lNfd_lW-13">
          <mxGeometry relative="1" as="geometry">
            <mxPoint x="220" y="529" as="targetPoint" />
          </mxGeometry>
        </mxCell>
        <mxCell id="GQPtleFYwMAm_lNfd_lW-13" value="&lt;span style=&quot;font-size: 10px;&quot;&gt;global_cpu_に2を&lt;br&gt;書き込む&lt;/span&gt;" style="rounded=1;whiteSpace=wrap;html=1;fontSize=12;glass=0;strokeWidth=1;shadow=0;" vertex="1" parent="WIyWlLk6GJQsqaUBKTNV-1">
          <mxGeometry x="160" y="459" width="120" height="40" as="geometry" />
        </mxCell>
        <mxCell id="GQPtleFYwMAm_lNfd_lW-14" value="" style="edgeStyle=orthogonalEdgeStyle;rounded=0;orthogonalLoop=1;jettySize=auto;html=1;endArrow=block;endFill=1;" edge="1" parent="WIyWlLk6GJQsqaUBKTNV-1" source="GQPtleFYwMAm_lNfd_lW-19">
          <mxGeometry relative="1" as="geometry">
            <mxPoint x="477" y="549" as="targetPoint" />
          </mxGeometry>
        </mxCell>
        <mxCell id="GQPtleFYwMAm_lNfd_lW-15" value="&lt;font style=&quot;font-size: 10px;&quot;&gt;Agent2にPingを送る&lt;/font&gt;" style="rounded=1;whiteSpace=wrap;html=1;fontSize=12;glass=0;strokeWidth=1;shadow=0;" vertex="1" parent="WIyWlLk6GJQsqaUBKTNV-1">
          <mxGeometry x="160" y="529" width="120" height="40" as="geometry" />
        </mxCell>
        <mxCell id="GQPtleFYwMAm_lNfd_lW-16" value="Agent1" style="rounded=0;whiteSpace=wrap;html=1;" vertex="1" parent="WIyWlLk6GJQsqaUBKTNV-1">
          <mxGeometry x="180" y="315" width="80" height="30" as="geometry" />
        </mxCell>
        <mxCell id="GQPtleFYwMAm_lNfd_lW-17" value="Agent2" style="rounded=0;whiteSpace=wrap;html=1;" vertex="1" parent="WIyWlLk6GJQsqaUBKTNV-1">
          <mxGeometry x="440" y="315" width="80" height="30" as="geometry" />
        </mxCell>
        <mxCell id="GQPtleFYwMAm_lNfd_lW-18" value="" style="edgeStyle=orthogonalEdgeStyle;rounded=0;orthogonalLoop=1;jettySize=auto;html=1;endArrow=none;endFill=0;" edge="1" parent="WIyWlLk6GJQsqaUBKTNV-1" source="GQPtleFYwMAm_lNfd_lW-15" target="GQPtleFYwMAm_lNfd_lW-19">
          <mxGeometry relative="1" as="geometry">
            <mxPoint x="280" y="436" as="sourcePoint" />
            <mxPoint x="420" y="436" as="targetPoint" />
          </mxGeometry>
        </mxCell>
        <mxCell id="GQPtleFYwMAm_lNfd_lW-19" value="Agent2のバリア値が&lt;br&gt;インクリメントされる" style="shape=step;perimeter=stepPerimeter;whiteSpace=wrap;html=1;fixedSize=1;fontSize=6;size=10;" vertex="1" parent="WIyWlLk6GJQsqaUBKTNV-1">
          <mxGeometry x="306" y="535.5" width="81" height="27" as="geometry" />
        </mxCell>
        <mxCell id="GQPtleFYwMAm_lNfd_lW-20" value="&lt;font style=&quot;font-size: 10px;&quot;&gt;Agent2のバリア値を&lt;br&gt;読み出す&lt;/font&gt;" style="rounded=1;whiteSpace=wrap;html=1;fontSize=12;glass=0;strokeWidth=1;shadow=0;" vertex="1" parent="WIyWlLk6GJQsqaUBKTNV-1">
          <mxGeometry x="420" y="360" width="120" height="40" as="geometry" />
        </mxCell>
        <mxCell id="GQPtleFYwMAm_lNfd_lW-21" value="" style="rounded=0;html=1;jettySize=auto;orthogonalLoop=1;fontSize=11;endArrow=block;endFill=0;endSize=8;strokeWidth=1;shadow=0;labelBackgroundColor=none;edgeStyle=orthogonalEdgeStyle;entryX=0.5;entryY=0;entryDx=0;entryDy=0;exitX=0.5;exitY=1;exitDx=0;exitDy=0;" edge="1" parent="WIyWlLk6GJQsqaUBKTNV-1" source="GQPtleFYwMAm_lNfd_lW-20">
          <mxGeometry relative="1" as="geometry">
            <mxPoint x="230" y="340" as="sourcePoint" />
            <mxPoint x="480" y="430" as="targetPoint" />
            <Array as="points">
              <mxPoint x="480" y="420" />
              <mxPoint x="480" y="420" />
            </Array>
          </mxGeometry>
        </mxCell>
        <mxCell id="GQPtleFYwMAm_lNfd_lW-22" value="&lt;font style=&quot;font-size: 8px;&quot;&gt;global_cpu_の値を読み出す。global_cpu_が1のまま。&lt;/font&gt;" style="rounded=1;whiteSpace=wrap;html=1;fontSize=12;glass=0;strokeWidth=1;shadow=0;" vertex="1" parent="WIyWlLk6GJQsqaUBKTNV-1">
          <mxGeometry x="420" y="430" width="120" height="40" as="geometry" />
        </mxCell>
        <mxCell id="GQPtleFYwMAm_lNfd_lW-25" value="" style="rounded=0;html=1;jettySize=auto;orthogonalLoop=1;fontSize=11;endArrow=block;endFill=0;endSize=8;strokeWidth=1;shadow=0;labelBackgroundColor=none;edgeStyle=orthogonalEdgeStyle;exitX=0.5;exitY=1;exitDx=0;exitDy=0;" edge="1" parent="WIyWlLk6GJQsqaUBKTNV-1" target="GQPtleFYwMAm_lNfd_lW-24">
          <mxGeometry relative="1" as="geometry">
            <mxPoint x="480" y="470" as="sourcePoint" />
            <mxPoint x="480" y="621" as="targetPoint" />
            <Array as="points" />
          </mxGeometry>
        </mxCell>
        <mxCell id="GQPtleFYwMAm_lNfd_lW-26" style="edgeStyle=orthogonalEdgeStyle;rounded=0;orthogonalLoop=1;jettySize=auto;html=1;" edge="1" parent="WIyWlLk6GJQsqaUBKTNV-1" source="GQPtleFYwMAm_lNfd_lW-24">
          <mxGeometry relative="1" as="geometry">
            <mxPoint x="480" y="648" as="targetPoint" />
          </mxGeometry>
        </mxCell>
        <mxCell id="GQPtleFYwMAm_lNfd_lW-24" value="&lt;span style=&quot;font-size: 8px;&quot;&gt;LocalYieldを発行する。&lt;/span&gt;" style="rounded=1;whiteSpace=wrap;html=1;fontSize=12;glass=0;strokeWidth=1;shadow=0;" vertex="1" parent="WIyWlLk6GJQsqaUBKTNV-1">
          <mxGeometry x="420" y="576" width="120" height="40" as="geometry" />
        </mxCell>
        <mxCell id="GQPtleFYwMAm_lNfd_lW-27" value="&lt;font style=&quot;font-size: 9px;&quot;&gt;agent_barrierが古い値のためLocalYieldは失敗する。&lt;/font&gt;" style="rounded=1;whiteSpace=wrap;html=1;" vertex="1" parent="WIyWlLk6GJQsqaUBKTNV-1">
          <mxGeometry x="420" y="648" width="120" height="45" as="geometry" />
        </mxCell>
      </root>
    </mxGraphModel>
  </diagram>
</mxfile>
